<?xml version="1.0" encoding="UTF-8"?>
<svg xmlns="http://www.w3.org/2000/svg" xmlns:xlink="http://www.w3.org/1999/xlink" width="120px" height="9px" viewBox="0 0 114 9" version="1.1">
<g id="surface1">
<path style=" stroke:none;fill-rule:evenodd;fill:rgb(46.27451%,20%,100%);fill-opacity:1;" d="M 0.769531 9 C 0.355469 9 0 8.652344 0 8.25 L 0 3.578125 C 0 1.617188 1.652344 0 3.660156 0 C 5.671875 0 7.324219 1.617188 7.324219 3.578125 C 7.324219 5.539062 5.671875 7.152344 3.660156 7.152344 C 2.953125 7.152344 2.304688 6.980469 1.714844 6.632812 L 1.535156 6.519531 L 1.535156 8.25 C 1.535156 8.652344 1.179688 9 0.769531 9 Z M 3.601562 1.441406 C 2.421875 1.441406 1.417969 2.421875 1.417969 3.578125 C 1.417969 4.730469 2.421875 5.710938 3.601562 5.710938 C 4.785156 5.710938 5.789062 4.730469 5.789062 3.578125 C 5.789062 2.421875 4.785156 1.441406 3.601562 1.441406 Z M 3.601562 1.441406 "/>
<path style=" stroke:none;fill-rule:nonzero;fill:rgb(46.27451%,20%,100%);fill-opacity:1;" d="M 18.664062 8.882812 C 18.25 8.882812 17.898438 8.539062 17.898438 8.132812 L 17.898438 5.769531 L 15.238281 1.617188 C 15.121094 1.441406 15.121094 1.269531 15.121094 1.039062 C 15.179688 0.867188 15.296875 0.691406 15.476562 0.578125 C 15.59375 0.519531 15.710938 0.460938 15.890625 0.460938 C 16.183594 0.460938 16.421875 0.578125 16.539062 0.808594 L 18.664062 4.152344 L 20.792969 0.808594 C 20.910156 0.578125 21.203125 0.460938 21.441406 0.460938 C 21.558594 0.460938 21.734375 0.519531 21.855469 0.578125 C 22.03125 0.691406 22.148438 0.867188 22.207031 1.039062 C 22.269531 1.210938 22.207031 1.441406 22.089844 1.617188 L 19.433594 5.769531 L 19.433594 8.132812 C 19.433594 8.539062 19.136719 8.882812 18.664062 8.882812 Z M 18.664062 8.882812 "/>
<path style=" stroke:none;fill-rule:nonzero;fill:rgb(46.27451%,20%,100%);fill-opacity:1;" d="M 13.941406 8.421875 C 14.058594 8.710938 14.351562 8.882812 14.648438 8.882812 C 14.707031 8.882812 14.824219 8.882812 14.945312 8.828125 C 15.355469 8.652344 15.535156 8.25 15.355469 7.847656 L 12.226562 0.921875 C 12.109375 0.75 11.992188 0.578125 11.8125 0.519531 C 11.753906 0.460938 11.636719 0.460938 11.519531 0.460938 C 11.222656 0.460938 10.925781 0.632812 10.808594 0.921875 L 7.679688 7.847656 C 7.5 8.191406 7.679688 8.652344 8.09375 8.828125 C 8.152344 8.882812 8.269531 8.882812 8.386719 8.882812 C 8.683594 8.882812 8.976562 8.710938 9.097656 8.421875 L 11.519531 3.058594 Z M 13.941406 8.421875 "/>
<path style=" stroke:none;fill-rule:nonzero;fill:rgb(46.27451%,20%,100%);fill-opacity:1;" d="M 25.929688 8.941406 C 24.984375 8.941406 24.039062 8.597656 23.507812 8.078125 C 23.332031 7.960938 23.273438 7.730469 23.273438 7.558594 C 23.273438 7.328125 23.332031 7.152344 23.507812 7.039062 C 23.683594 6.867188 23.863281 6.808594 24.097656 6.808594 C 24.277344 6.808594 24.511719 6.867188 24.628906 7.039062 C 24.925781 7.328125 25.515625 7.5 25.988281 7.5 C 26.816406 7.5 27.289062 7.097656 27.289062 6.460938 C 27.289062 5.652344 26.519531 5.421875 25.695312 5.191406 C 24.570312 4.902344 23.332031 4.5 23.332031 2.769531 C 23.332031 1.441406 24.511719 0.402344 25.988281 0.402344 C 27.109375 0.402344 28.234375 0.808594 28.234375 1.558594 C 28.234375 1.960938 27.878906 2.25 27.523438 2.25 C 27.40625 2.25 27.230469 2.191406 26.992188 2.078125 C 26.699219 1.960938 26.34375 1.847656 25.929688 1.847656 L 25.753906 1.847656 C 25.160156 1.902344 24.867188 2.25 24.867188 2.769531 C 24.867188 3.460938 25.632812 3.691406 26.460938 3.921875 L 26.53125 3.941406 C 27.691406 4.28125 28.941406 4.648438 28.941406 6.347656 C 28.824219 7.789062 27.523438 8.941406 25.929688 8.941406 Z M 25.929688 8.941406 "/>
<path style=" stroke:none;fill-rule:evenodd;fill:rgb(46.27451%,20%,100%);fill-opacity:1;" d="M 46.308594 8.132812 C 46.308594 8.539062 46.601562 8.828125 47.015625 8.828125 L 48.847656 8.828125 C 51.210938 8.828125 53.101562 6.921875 53.101562 4.671875 C 53.101562 2.421875 51.210938 0.519531 48.847656 0.519531 L 47.015625 0.519531 C 46.601562 0.519531 46.308594 0.808594 46.308594 1.210938 Z M 48.847656 7.441406 L 47.84375 7.441406 L 47.84375 1.902344 L 48.90625 1.902344 C 50.324219 1.902344 51.503906 3.117188 51.503906 4.671875 C 51.503906 6.171875 50.324219 7.441406 48.847656 7.441406 Z M 48.847656 7.441406 "/>
<path style=" stroke:none;fill-rule:nonzero;fill:rgb(46.27451%,20%,100%);fill-opacity:1;" d="M 31.1875 8.828125 C 30.773438 8.769531 30.476562 8.480469 30.476562 8.078125 L 30.476562 1.269531 C 30.476562 0.867188 30.832031 0.519531 31.246094 0.519531 L 34.789062 0.519531 C 35.203125 0.519531 35.5 0.808594 35.5 1.210938 C 35.5 1.617188 35.203125 1.902344 34.789062 1.902344 L 32.015625 1.902344 L 32.015625 3.691406 L 34.554688 3.691406 C 34.96875 3.691406 35.261719 3.980469 35.261719 4.382812 C 35.261719 4.789062 34.96875 5.078125 34.554688 5.078125 L 32.015625 5.078125 L 32.015625 7.441406 L 34.789062 7.441406 C 35.203125 7.441406 35.5 7.730469 35.5 8.132812 C 35.5 8.539062 35.203125 8.828125 34.789062 8.828125 Z M 31.1875 8.828125 "/>
<path style=" stroke:none;fill-rule:nonzero;fill:rgb(46.27451%,20%,100%);fill-opacity:1;" d="M 42.765625 8.539062 C 42.882812 8.769531 43.175781 8.882812 43.414062 8.882812 C 43.828125 8.882812 44.179688 8.539062 44.179688 8.132812 L 44.179688 1.210938 C 44.179688 0.808594 43.828125 0.460938 43.414062 0.460938 C 43 0.460938 42.644531 0.808594 42.644531 1.210938 L 42.644531 6.058594 L 42.410156 5.769531 C 41.167969 4.039062 38.746094 0.808594 38.6875 0.75 C 38.570312 0.578125 38.332031 0.460938 38.097656 0.460938 C 37.683594 0.460938 37.328125 0.808594 37.328125 1.210938 L 37.328125 8.132812 C 37.328125 8.539062 37.683594 8.882812 38.097656 8.882812 C 38.511719 8.882812 38.867188 8.539062 38.867188 8.132812 L 38.867188 3.289062 Z M 42.765625 8.539062 "/>
<path style=" stroke:none;fill-rule:nonzero;fill:rgb(14.509804%,15.686275%,16.862745%);fill-opacity:1;" d="M 58.289062 0.785156 L 58.289062 8.863281 L 60.6875 8.863281 C 62.117188 8.863281 63.265625 7.996094 63.265625 6.5 C 63.265625 5.519531 62.808594 4.878906 62.160156 4.554688 C 62.597656 4.195312 62.851562 3.722656 62.851562 3 C 62.851562 1.550781 61.769531 0.785156 60.308594 0.785156 Z M 60.945312 5.410156 C 61.570312 5.410156 62.003906 5.914062 62.003906 6.476562 C 62.003906 7.097656 61.535156 7.546875 60.957031 7.546875 L 59.550781 7.546875 L 59.550781 5.410156 Z M 60.578125 2.113281 C 61.179688 2.113281 61.601562 2.5625 61.601562 3.125 C 61.601562 3.734375 61.15625 4.136719 60.578125 4.136719 L 59.550781 4.136719 L 59.550781 2.113281 Z M 60.578125 2.113281 "/>
<path style=" stroke:none;fill-rule:nonzero;fill:rgb(14.509804%,15.686275%,16.862745%);fill-opacity:1;" d="M 68.34375 7.636719 C 67.183594 7.636719 66.421875 6.859375 66.421875 5.644531 L 66.421875 0.785156 L 65.164062 0.785156 L 65.164062 5.65625 C 65.164062 7.671875 66.445312 9.007812 68.34375 9.007812 C 70.238281 9.007812 71.523438 7.671875 71.523438 5.65625 L 71.523438 0.785156 L 70.261719 0.785156 L 70.261719 5.644531 C 70.261719 6.859375 69.503906 7.636719 68.34375 7.636719 Z M 68.34375 7.636719 "/>
<path style=" stroke:none;fill-rule:nonzero;fill:rgb(14.509804%,15.686275%,16.862745%);fill-opacity:1;" d="M 76.917969 4.757812 C 76.582031 4.441406 76.214844 4.171875 75.355469 3.460938 C 75.097656 3.261719 74.761719 2.945312 74.761719 2.617188 C 74.761719 2.167969 75.210938 2.011719 75.621094 2.011719 C 76.257812 2.011719 76.996094 2.359375 77.429688 2.96875 L 77.6875 1.742188 C 77.351562 1.167969 76.558594 0.640625 75.621094 0.640625 C 74.417969 0.640625 73.480469 1.359375 73.480469 2.574219 C 73.480469 3.238281 73.816406 3.734375 74.261719 4.207031 C 74.664062 4.644531 75.265625 5.117188 76.113281 5.8125 C 76.480469 6.128906 76.726562 6.445312 76.726562 6.828125 C 76.726562 7.332031 76.335938 7.636719 75.710938 7.636719 C 74.886719 7.636719 74.050781 7.140625 73.589844 6.398438 L 73.210938 7.636719 C 73.46875 8.289062 74.527344 9.007812 75.65625 9.007812 C 77.050781 9.007812 78.011719 8.121094 78.011719 6.804688 C 78.011719 5.914062 77.550781 5.320312 76.917969 4.757812 Z M 76.917969 4.757812 "/>
<path style=" stroke:none;fill-rule:nonzero;fill:rgb(14.509804%,15.686275%,16.862745%);fill-opacity:1;" d="M 79.839844 8.863281 L 81.101562 8.863281 L 81.101562 0.785156 L 79.839844 0.785156 Z M 79.839844 8.863281 "/>
<path style=" stroke:none;fill-rule:nonzero;fill:rgb(14.509804%,15.686275%,16.862745%);fill-opacity:1;" d="M 83.492188 8.863281 L 84.753906 8.863281 L 84.753906 2.988281 L 88.746094 8.863281 L 90.050781 8.863281 L 90.050781 0.785156 L 88.789062 0.785156 L 88.789062 6.703125 L 84.796875 0.785156 L 83.492188 0.785156 Z M 83.492188 8.863281 "/>
<path style=" stroke:none;fill-rule:nonzero;fill:rgb(14.509804%,15.686275%,16.862745%);fill-opacity:1;" d="M 92.4375 8.863281 L 96.789062 8.863281 L 96.789062 7.488281 L 93.699219 7.488281 L 93.699219 5.398438 L 96.453125 5.398438 L 96.453125 4.023438 L 93.699219 4.023438 L 93.699219 2.15625 L 96.789062 2.15625 L 96.789062 0.785156 L 92.4375 0.785156 Z M 92.4375 8.863281 "/>
<path style=" stroke:none;fill-rule:nonzero;fill:rgb(14.509804%,15.686275%,16.862745%);fill-opacity:1;" d="M 101.933594 4.757812 C 101.597656 4.441406 101.230469 4.171875 100.371094 3.460938 C 100.113281 3.261719 99.78125 2.945312 99.78125 2.617188 C 99.78125 2.167969 100.226562 2.011719 100.640625 2.011719 C 101.273438 2.011719 102.011719 2.359375 102.445312 2.96875 L 102.703125 1.742188 C 102.367188 1.167969 101.578125 0.640625 100.640625 0.640625 C 99.433594 0.640625 98.496094 1.359375 98.496094 2.574219 C 98.496094 3.238281 98.832031 3.734375 99.277344 4.207031 C 99.679688 4.644531 100.28125 5.117188 101.128906 5.8125 C 101.5 6.128906 101.742188 6.445312 101.742188 6.828125 C 101.742188 7.332031 101.351562 7.636719 100.726562 7.636719 C 99.902344 7.636719 99.066406 7.140625 98.609375 6.398438 L 98.230469 7.636719 C 98.484375 8.289062 99.546875 9.007812 100.671875 9.007812 C 102.066406 9.007812 103.027344 8.121094 103.027344 6.804688 C 103.027344 5.914062 102.570312 5.320312 101.933594 4.757812 Z M 101.933594 4.757812 "/>
<path style=" stroke:none;fill-rule:nonzero;fill:rgb(14.509804%,15.686275%,16.862745%);fill-opacity:1;" d="M 107.914062 4.757812 C 107.578125 4.441406 107.210938 4.171875 106.351562 3.460938 C 106.097656 3.261719 105.761719 2.945312 105.761719 2.617188 C 105.761719 2.167969 106.207031 2.011719 106.621094 2.011719 C 107.257812 2.011719 107.992188 2.359375 108.429688 2.96875 L 108.683594 1.742188 C 108.351562 1.167969 107.558594 0.640625 106.621094 0.640625 C 105.414062 0.640625 104.476562 1.359375 104.476562 2.574219 C 104.476562 3.238281 104.8125 3.734375 105.257812 4.207031 C 105.660156 4.644531 106.261719 5.117188 107.109375 5.8125 C 107.480469 6.128906 107.726562 6.445312 107.726562 6.828125 C 107.726562 7.332031 107.335938 7.636719 106.710938 7.636719 C 105.882812 7.636719 105.046875 7.140625 104.589844 6.398438 L 104.210938 7.636719 C 104.46875 8.289062 105.527344 9.007812 106.652344 9.007812 C 108.046875 9.007812 109.007812 8.121094 109.007812 6.804688 C 109.007812 5.914062 108.550781 5.320312 107.914062 4.757812 Z M 107.914062 4.757812 "/>
</g>
</svg>
