<svg width="80" height="80" viewBox="0 0 80 80" fill="none" xmlns="http://www.w3.org/2000/svg">
<circle cx="40" cy="40" r="40" fill="white"/>
<path d="M33.1244 49.9793L33.1243 49.9795L33.1324 49.9843C35.8322 51.6 38.8024 52.4075 42.0389 52.4075C51.2194 52.4075 58.7793 44.8679 58.7793 35.7099C58.7793 26.5519 51.2194 19.0123 42.0389 19.0123C32.8583 19.0123 25.2984 26.5519 25.2984 35.7099V57.265C25.2984 59.238 26.9887 60.9231 28.9655 60.9231C30.9424 60.9231 32.6326 59.238 32.6326 57.265V49.6523L33.1244 49.9793ZM32.099 35.7099C32.099 30.4979 36.5452 26.0624 41.7721 26.0624C46.9989 26.0624 51.4451 30.4979 51.4451 35.7099C51.4451 40.9219 46.9989 45.3574 41.7721 45.3574C36.5452 45.3574 32.099 40.9219 32.099 35.7099Z" fill="#7633FF" stroke="#7633FF" stroke-width="0.397351"/>
</svg>
